<?xml version="1.0" standalone="no"?>
<!DOCTYPE svg PUBLIC "-//W3C//DTD SVG 1.1//EN" "http://www.w3.org/Graphics/SVG/1.1/DTD/svg11.dtd" >
<svg xmlns="http://www.w3.org/2000/svg">
<metadata></metadata>
<defs>
<font id="ancient_godbold" horiz-adv-x="2211" >
<font-face units-per-em="2048" ascent="1638" descent="-410" />
<missing-glyph horiz-adv-x="799" />
<glyph horiz-adv-x="0" />
<glyph unicode="&#xd;" horiz-adv-x="508" />
<glyph unicode=" "  horiz-adv-x="799" />
<glyph unicode="&#x09;" horiz-adv-x="799" />
<glyph unicode="&#xa0;" horiz-adv-x="799" />
<glyph unicode="!" horiz-adv-x="817" d="M-2 1435h642v-1153h-640zM116 -200l1 383h392v-383h-393z" />
<glyph unicode="&#x22;" horiz-adv-x="1090" d="M0 1222l1 583h392v-583h-393zM497 1222l1 583h392v-583h-393z" />
<glyph unicode="#" horiz-adv-x="2146" d="M2 578h130v106h-129l-1 265h130l-1 484l772 2v-19l-129 -147v-319h441v316l-131 150v19l774 -1v-483h160v-268h-160l-1 -103h161v-268h-161v-498l-773 -1v19l131 150v330l-440 1v-329l131 -150v-19l-773 1l-1 497h-129zM774 687l1 -108h440v108h-441z" />
<glyph unicode="$" horiz-adv-x="1925" d="M-1 -9v523h19l133 -114h531l-681 678l354 355h193v197h642v-197h539l-1 -501h-19l-152 133h-512l681 -679l-1 -396h-535v-192h-640v193h-551z" />
<glyph unicode="&#x26;" horiz-adv-x="1907" d="M-112 172l456 466l-444 452l342 342h1260l-1 -605h-19l-152 133h-512l304 -322v-19l-304 -323h380l-2 265l591 2v-268h-286v-491l-1244 -1z" />
<glyph unicode="'" horiz-adv-x="602" d="M0 1222l1 583h392v-583h-393z" />
<glyph unicode="(" horiz-adv-x="522" d="M0 1654h461v-23l-130 -148v-1606l130 -148v-26h-460z" />
<glyph unicode=")" horiz-adv-x="528" d="M-128 -265l130 148v1606l-130 148v23h461l-1 -1951h-460v26z" />
<glyph unicode="*" horiz-adv-x="1092" d="M218 1333q0 20 7 40q12 43 47 67q25 19 55 19q17 0 32 -6q29 -9 89 -71q42 -44 48 -46q-2 25 -31 76q-41 74 -41 96q0 40 33 67.5t87 27.5q51 0 85.5 -25.5t34.5 -63.5q0 -25 -38 -96q-31 -59 -33 -82q7 2 48 46q58 62 85 71q18 5 34 5q30 0 56 -15q36 -23 50 -68 q7 -20 7 -40q0 -18 -5 -32q-14 -44 -58 -56q-12 -4 -32 -4q-31 0 -83 9q-38 7 -61 7q-13 0 -19 -2q20 -26 74 -50q76 -36 91 -57q18 -24 18 -48q0 -10 -3 -20q-10 -38 -49 -66q-39 -30 -83 -30q-35 0 -35 1q-17 0 -41 33q-18 25 -29 106q-9 63 -14 70q-4 -6 -11 -69 q-10 -79 -24 -98q-29 -37 -77 -41h-7q-42 0 -81 28q-37 26 -49 65q-4 11 -4 23q0 21 18 46q14 19 92 57q54 25 74 49q-6 2 -19 2q-22 0 -56 -7q-57 -11 -87 -11q-18 0 -27 4q-45 13 -61 54q-7 16 -7 35z" />
<glyph unicode="+" horiz-adv-x="1115" d="M-1 489l1 265l309 1l2 327h268v-327l331 1v-268h-332v-317l-265 1l-1 317h-313z" />
<glyph unicode="," horiz-adv-x="602" d="M3 -197l1 583h392v-583h-393z" />
<glyph unicode="-" horiz-adv-x="1115" d="M-1 489l1 265l910 2v-268z" />
<glyph unicode="." horiz-adv-x="599" d="M3 3l1 383h392v-383h-393z" />
<glyph unicode="/" horiz-adv-x="1827" d="M-167 46l1204 1212l-127 145l-3 22l856 1l-2 -225l-1225 -1231l130 -148v-19h-832z" />
<glyph unicode="0" horiz-adv-x="1928" d="M-1 1434h1427l304 -304v-1328l-1425 -1l-304 304zM647 280h457v682h-457v-682z" />
<glyph unicode="1" horiz-adv-x="1928" d="M-544 1433v2h1zM-543 1435h1v1zM-1 964l472 471h711l1 -1628h-640l-1 1157h-543z" />
<glyph unicode="2" horiz-adv-x="1925" d="M-1 1436h1269l459 -459l-681 -678h531l133 114h19v-606l-1726 -1l-1 479l681 679h-512l-152 -133h-19z" />
<glyph unicode="3" horiz-adv-x="1701" d="M2 1435h1260l342 -342l-444 -452l456 -466l-369 -369l-1244 1v606h19l133 -114h531l-304 323v19l304 322h-512l-152 -133h-19z" />
<glyph unicode="4" horiz-adv-x="1919" d="M-1 1430l772 2v-19l-129 -147l1 -514h440v511l-131 150v19l774 -1l-1 -1625l-773 2v19l131 150v298l-1082 2z" />
<glyph unicode="5" horiz-adv-x="1925" d="M-1 -194l1 605h19l152 -133h512l-681 679l1 476l1726 2v-606h-19l-133 114h-531l681 -678l-459 -459h-1269z" />
<glyph unicode="6" horiz-adv-x="1916" d="M1 1433h1240l472 -471l-1065 -1v-209l1066 -1v-945l-1711 1zM648 278h420v209h-420v-209z" />
<glyph unicode="7" horiz-adv-x="1894" d="M2 1435h1727l1 -225l-703 -704l-1 -699h-645l1 834l304 322h-512l-152 -133h-19z" />
<glyph unicode="8" horiz-adv-x="1919" d="M-2 -190l1 1625l1246 -1l482 -482l-1 -1141zM641 283l441 -1v207h-441v-206zM641 754l441 1v205l-441 2v-208z" />
<glyph unicode="9" horiz-adv-x="1916" d="M1 488v945l1242 2l470 -467l1 -1162h-1711l-1 583h19l131 -112l915 -2v212zM647 752h420v209h-420v-209z" />
<glyph unicode=":" horiz-adv-x="599" d="M3 3l1 383h392v-383h-393zM3 488l1 383h392v-383h-393z" />
<glyph unicode=";" horiz-adv-x="599" d="M3 -197l1 583h392v-583h-393zM3 488l1 383h392v-383h-393z" />
<glyph unicode="=" horiz-adv-x="1115" d="M2 305l1 265l910 2v-268zM2 676l1 265l910 2v-268z" />
<glyph unicode="?" horiz-adv-x="1744" d="M2 1435h1263l345 -348l-583 -581l-1 -217h-645l1 352l304 322h-512l-152 -133h-19zM519 -200l1 383h392v-383h-393z" />
<glyph unicode="@" horiz-adv-x="2389" d="M4 1704l1704 1l488 -490v-1107l-1026 -1v16l113 130v347h-365v-349l111 -128v-16l-659 1l1 1222l1127 -1l334 -335l2 -620h96v721l-342 343l-1316 -1v-1434l1058 1v-268h-1325zM918 826l365 1v177l-365 -1v-177z" />
<glyph unicode="A" d="M-3 -190l1 1625l1540 -1l482 -482l-1 -1141l-776 -2v19l133 152l-1 509h-735v-511l131 -150v-19zM640 754l735 1v205l-735 2v-208z" />
<glyph unicode="B" d="M-3 -190l1 1625l1540 -1l482 -482l-1 -1141zM640 283l735 -1v207h-735v-206zM640 754l735 1v205l-735 2v-208z" />
<glyph unicode="C" horiz-adv-x="2212" d="M8 1435h1541l472 -471l-1366 -1v-683l1217 -1l131 112h19v-583l-2012 1z" />
<glyph unicode="D" horiz-adv-x="2527" d="M-1 -195l1 1632h1804l702 -702v-19l-911 -911h-1596zM627 279h588l447 447l-238 236h-797v-683z" />
<glyph unicode="E" horiz-adv-x="1925" d="M2 52l570 589l-570 569l1 225h1727l-1 -605h-19l-152 133h-512l304 -322v-19l-304 -323h531l133 114h19v-606l-1726 -1z" />
<glyph unicode="F" horiz-adv-x="1894" d="M2 1210l1 225h1727l-1 -605h-19l-152 133h-512l304 -322v-19l-304 -323l1 -492h-645l-1 653l171 181z" />
<glyph unicode="G" d="M8 1435h1541l472 -471l-1366 -1v-683h721v209h-265l1 265l910 2v-948l-2012 1z" />
<glyph unicode="H" d="M-3 -190l1 1625l773 -2v-19l-131 -150v-510l735 1l-1 509l-131 150v19l778 2l-2 -1624l-776 -2v19l133 152l-1 509h-735v-511l131 -150v-19z" />
<glyph unicode="I" horiz-adv-x="844" d="M-2 1435h642v-1628h-640z" />
<glyph unicode="J" horiz-adv-x="964" d="M-1 -170l130 148l-2 1457h642v-1628h-770v23z" />
<glyph unicode="K" d="M-3 -190l1 1625l773 -2v-19l-131 -150v-510h61l682 681h638l-2 -225l-456 -455h457l-1 -944l-640 -2h-132v19l129 147l-1 514h-735v-511l131 -150v-19h-132z" />
<glyph unicode="L" horiz-adv-x="1547" d="M0 -193l1 1628h639v-1156h721v-472l-721 1v-1h-640z" />
<glyph unicode="M" horiz-adv-x="2438" d="M0 -194v1623h492l627 -418l683 418h435l1 -1392v-230l-759 -1v19l133 152v769l-512 -323l-475 323v-769l133 -152v-19h-758z" />
<glyph unicode="N" d="M-3 -190l1 1625l773 -2l604 -604l-1 435l-131 150v19l778 2l-2 -1624l-776 -2v19l133 152v28l-736 737v-767l131 -150v-19z" />
<glyph unicode="O" horiz-adv-x="2201" d="M2 1436h1691l304 -304v-1328l-1689 -1l-304 304zM650 282h721v682h-721v-682z" />
<glyph unicode="P" d="M-3 -190l1 1154v471h1554l469 -473v-675l-1381 -2v-307l131 -150v-19zM640 756l735 -1v209l-717 -1h-18v-207z" />
<glyph unicode="Q" horiz-adv-x="2204" d="M2 1436h1691l304 -304v-1158l129 -147v-23h-881l-937 -1l-304 304zM650 282h721v682h-721v-682z" />
<glyph unicode="R" d="M-3 -190l1 1625l1551 -2l469 -473l-1 -472h-456l455 -454l2 -225h-638l-681 680h-59v-511l131 -150v-19zM640 754l732 1v207l-732 -1v-207z" />
<glyph unicode="S" horiz-adv-x="1925" d="M-1 -193v606h19l133 -114h531l-681 678l459 459h1269l-1 -605h-19l-152 133h-512l681 -679l-1 -479z" />
<glyph unicode="T" horiz-adv-x="1928" d="M-544 1433v2h1zM-543 1435h1v1zM-1 828l2 607h1725l-1 -605h-19l-152 133h-371v-1156h-640l-1 1157h-368l-156 -136h-19z" />
<glyph unicode="U" horiz-adv-x="1928" d="M-3 -190l1 1625l773 -2v-19l-131 -150l-1 -980h443l-2 980l-131 150v19l778 2l-2 -1624z" />
<glyph unicode="V" horiz-adv-x="1925" d="M2 381l2 1054l772 -2v-19l-130 -149v-710l440 -464v1173l-131 150v19l771 1v-1622h-1154z" />
<glyph unicode="W" horiz-adv-x="2438" d="M0 -194v1623h758v-19l-133 -152v-769l475 323l512 -323v769l-133 152v19l759 -1v-230l-1 -1392h-435l-683 418l-627 -418h-492z" />
<glyph unicode="X" horiz-adv-x="2122" d="M2 52l579 582l-579 576l1 225h857v-22l-131 -150l238 -239l239 240l-127 145l-3 22l856 1l-2 -225l-579 -576l579 -582l2 -240h-834v19l128 146l-261 262l-260 -260l130 -148v-19h-832z" />
<glyph unicode="Y" horiz-adv-x="2122" d="M2 1210l1 225h857v-22l-131 -150l238 -239l239 240l-127 145l-3 22l856 1l-2 -225l-644 -644l1 -750h-645v751z" />
<glyph unicode="Z" horiz-adv-x="1925" d="M-1 1436h1727l1 -459l-681 -678h531l133 114h19v-606l-1726 -1l-1 479l681 679h-512l-152 -133h-19z" />
<glyph unicode="[" horiz-adv-x="522" d="M0 1654h461v-23l-130 -148v-1606l130 -148v-26h-460z" />
<glyph unicode="\" horiz-adv-x="1827" d="M-167 1426l856 -1l-3 -22l-127 -145l1204 -1212l-1 -243h-832v19l130 148l-1225 1231z" />
<glyph unicode="]" horiz-adv-x="528" d="M-128 -265l130 148v1606l-130 148v23h461l-1 -1951h-460v26z" />
<glyph unicode="^" horiz-adv-x="835" d="M3 1264v292l288 288h62l289 -288v-296l-98 1l-221 222l-216 -219h-104z" />
<glyph unicode="_" horiz-adv-x="906" d="M-102 -269l1 265l910 2v-268z" />
<glyph unicode="`" horiz-adv-x="593" d="M1 1498l1 291h392v-583l-98 -3z" />
<glyph unicode="a" d="M0 0l1 1435l1630 -1l392 -393l-1 -1040l-776 -2v19l133 152l-1 408h-735v-410l131 -150v-19zM643 843l735 1v205l-735 2v-208z" />
<glyph unicode="b" d="M0 0l1 1435l1639 -1l383 -384l-1 -1049zM643 381l735 -1v207h-735v-206zM643 852l735 -2v208l-735 2v-208z" />
<glyph unicode="c" horiz-adv-x="2212" d="M2 1450h1624l389 -388l-1366 -1v-683l1217 -1l131 112h19v-485l-2012 -2z" />
<glyph unicode="d" horiz-adv-x="2429" d="M-1 0l1 1437h1804l607 -605v-17l-816 -815h-1596zM627 417h588l407 405l-198 197h-797v-602z" />
<glyph unicode="e" horiz-adv-x="1910" d="M-1 135l570 589l-570 569l1 133h1724l2 -513h-19l-152 133h-512l304 -322v-19l-304 -323h531l133 114h19v-493l-1726 -1z" />
<glyph unicode="f" horiz-adv-x="1894" d="M2 1311l1 127h1727l-1 -507h-19l-152 133h-512l304 -322v-19l-304 -323l1 -400h-645l-1 561l171 181z" />
<glyph unicode="g" horiz-adv-x="2201" d="M2 1426h1634l379 -379l-1366 -1v-664h721v190h-265l1 265l910 2v-837l-2012 1z" />
<glyph unicode="h" d="M0 1l1 1432l773 1v-22l-131 -150v-412l732 1l2 411l-131 150v22l778 -1l-2 -1434l-776 1v19l133 152l-1 414h-735v-416l131 -150v-19z" />
<glyph unicode="i" horiz-adv-x="829" d="M-2 1435h642v-1431h-640z" />
<glyph unicode="j" horiz-adv-x="964" d="M2 1v23l130 148l1 1261h639v-1432h-770z" />
<glyph unicode="k" d="M0 3l1 1435l773 -2v-19l-131 -150v-415h159l584 586h638l-2 -130l-456 -455h457l-1 -849l-772 -2v19l129 147l-1 419h-735v-416l131 -150v-19z" />
<glyph unicode="l" horiz-adv-x="1547" d="M0 1l1 1432h639v-1049h721v-383h-1361z" />
<glyph unicode="m" horiz-adv-x="2426" d="M0 5v1424h492l627 -418l683 418h435l1 -1423l-759 -1v19l133 152v570l-512 -323l-475 323v-570l133 -152v-19h-758z" />
<glyph unicode="n" d="M3 0l1 1435l773 -2l604 -506l-1 337l-131 150v19l778 2l-2 -1434l-776 -2v19l133 152v28l-736 645v-675l131 -150v-19z" />
<glyph unicode="o" horiz-adv-x="2180" d="M-4 1427h1691l304 -304v-1119l-1689 -1l-304 304zM644 383h721v664h-721v-664z" />
<glyph unicode="p" d="M0 0l1 1441h1640l383 -384v-580l-1381 -2v-307l131 -150v-19zM643 851l735 -1v209l-735 -1v-207z" />
<glyph unicode="q" horiz-adv-x="2180" d="M-4 1427h1691l304 -304v-950l129 -147v-23h-881l1 1l-938 -1l-304 304zM644 383h721v664h-721v-664z" />
<glyph unicode="r" d="M0 -2l1 1435l1649 1l371 -372l-1 -472h-456l455 -454l2 -139h-638l-595 591l-145 3v-425l131 -150v-19zM643 856l732 1v211l-732 -1v-211z" />
<glyph unicode="s" horiz-adv-x="1925" d="M-1 -9v523h19l133 -114h531l-681 678l354 355h1374l-1 -501h-19l-152 133h-512l681 -679l-1 -396z" />
<glyph unicode="t" horiz-adv-x="1928" d="M2 933l2 500h1725l-1 -498h-19l-152 133h-371v-1067h-640l-1 1068h-368l-156 -136h-19z" />
<glyph unicode="u" horiz-adv-x="1928" d="M0 0l1 1435l773 -2v-19l-131 -150l-1 -882h443l-2 882l-131 150v19l778 2l-2 -1434z" />
<glyph unicode="v" horiz-adv-x="1925" d="M2 571l2 861l772 -2v-19l-130 -149v-517l440 -464v980l-131 150v19l771 1v-1429h-1154z" />
<glyph unicode="w" horiz-adv-x="2438" d="M3 -3v1436h758v-19l-133 -152v-582l475 323l512 -323v582l-133 152v19l756 2l2 -1438h-435l-683 418l-627 -418h-492z" />
<glyph unicode="x" horiz-adv-x="2122" d="M2 150l579 582l-579 576l1 127h857v-22l-91 -92l198 -199l199 197l-87 90l-3 22l856 1l-2 -127l-579 -576l579 -582l2 -148h-834v19l94 90l-227 226l-223 -221l93 -95v-19h-832z" />
<glyph unicode="y" horiz-adv-x="2122" d="M2 1210l1 225h857v-22l-131 -150l238 -239l239 240l-127 145l-3 22l856 1l-2 -225l-644 -644l1 -563h-645v564z" />
<glyph unicode="z" horiz-adv-x="1925" d="M-1 1430h1727l1 -349l-681 -678h531l133 114h19v-520l-1726 -1l-1 393l681 679h-512l-152 -133h-19z" />
<glyph unicode="{" horiz-adv-x="700" d="M1 678h1l168 130v846h461v-23l-130 -148v-1606l130 -148v-26h-460v845z" />
<glyph unicode="|" horiz-adv-x="531" d="M4 1702h331v-2003h-330z" />
<glyph unicode="}" horiz-adv-x="700" d="M-128 -265l130 148v1606l-130 148v23h461v-846l168 -130h1l-170 -130v-845h-460v26z" />
<glyph unicode="&#xa2;" horiz-adv-x="2212" d="M2 1450h659v190h642v-190h323l389 -388l-1366 -1v-683l1217 -1l131 112h19v-485l-713 -1v-193h-640v193l-659 -1z" />
<glyph unicode="&#xa9;" horiz-adv-x="1861" d="M2 627q0 160 58.5 309t171.5 266q114 122 271.5 189.5t332.5 67.5q170 0 325.5 -67.5t272.5 -189.5q110 -114 170 -265.5t60 -309.5q0 -159 -60 -308.5t-175 -267.5q-117 -123 -271.5 -188.5t-328.5 -65.5q-172 0 -324 66.5t-270 189.5q-116 118 -174.5 265.5 t-58.5 308.5zM83 627q0 -159 60.5 -297t172.5 -246q110 -101 240 -153.5t274 -52.5q145 0 277 52t240 152q112 109 174 248.5t62 296.5q0 155 -62 297t-169 246q-107 102 -241 155t-276 53q-145 0 -280 -53t-254 -167q-97 -94 -157.5 -233.5t-60.5 -297.5zM320 1075h815 l250 -249l-723 -1v-361l644 -1l70 60h10v-309l-1065 1z" />
<glyph unicode="&#xad;" horiz-adv-x="1115" d="M-1 489l1 265l910 2v-268z" />
<glyph unicode="&#xae;" horiz-adv-x="1861" d="M2 627q0 160 58.5 309t171.5 266q114 122 271.5 189.5t332.5 67.5q170 0 325.5 -67.5t272.5 -189.5q110 -114 170 -265.5t60 -309.5q0 -159 -60 -308.5t-175 -267.5q-117 -123 -271.5 -188.5t-328.5 -65.5q-172 0 -324 66.5t-270 189.5q-116 118 -174.5 265.5 t-58.5 308.5zM83 627q0 -159 60.5 -297t172.5 -246q110 -101 240 -153.5t274 -52.5q145 0 277 52t240 152q112 109 174 248.5t62 296.5q0 155 -62 297t-169 246q-107 102 -241 155t-276 53q-145 0 -280 -53t-254 -167q-97 -94 -157.5 -233.5t-60.5 -297.5zM314 207l1 860 l821 -1l248 -251v-249h-242l241 -241l1 -119h-338l-360 360h-32v-271l70 -79v-10zM654 706l388 1v110l-388 -1v-110z" />
<glyph unicode="&#xb4;" horiz-adv-x="593" d="M1 1206v583h392l1 -291l-295 -295z" />
<glyph unicode="&#xb6;" d="M-3 287v675l469 473h1554v-471l1 -1154l-642 -1l-1 476h-105v-475l-770 -1v22l130 148l-1 307zM640 756l735 -1v209l-717 -1h-18v-207z" />
<glyph unicode="&#xb7;" horiz-adv-x="599" d="M3 488l1 383h392v-383h-393z" />
<glyph unicode="&#xc0;" d="M-3 -190l1 1625l1540 -1l482 -482l-1 -1141l-776 -2v19l133 152l-1 509h-735v-511l131 -150v-19zM640 754l735 1v205l-735 2v-208zM814 1589l1 263h392v-555l-98 -3z" />
<glyph unicode="&#xc1;" d="M-3 -190l1 1625l1540 -1l482 -482l-1 -1141l-776 -2v19l133 152l-1 509h-735v-511l131 -150v-19zM640 754l735 1v205l-735 2v-208zM818 1292v555h392l1 -263l-295 -295z" />
<glyph unicode="&#xc2;" d="M-3 -190l1 1625l1540 -1l482 -482l-1 -1141l-776 -2v19l133 152l-1 509h-735v-511l131 -150v-19zM640 754l735 1v205l-735 2v-208zM681 1295v292l267 269l104 -3l268 -266v-296l-98 1l-221 222l-216 -219h-104z" />
<glyph unicode="&#xc3;" d="M-3 -190l1 1625l1540 -1l482 -482l-1 -1141l-776 -2v19l133 152l-1 509h-735v-511l131 -150v-19zM640 754l735 1v205l-735 2v-208zM684 1513l1 265l636 2v-268z" />
<glyph unicode="&#xc4;" d="M-3 -190l1 1625l1540 -1l482 -482l-1 -1141l-776 -2v19l133 152l-1 509h-735v-511l131 -150v-19zM640 754l735 1v205l-735 2v-208zM685 1514v264h264v-264h-264zM1056 1514v264h264v-264h-264z" />
<glyph unicode="&#xc6;" horiz-adv-x="2723" d="M-3 -190l1 1625h2539l-1 -602h-19l-152 133h-512l304 -322v-19l-304 -323h531l133 114h19v-606l-1293 -1v19l133 152l-1 509h-735v-511l131 -150v-19zM640 754l735 1v205l-735 2v-208z" />
<glyph unicode="&#xc8;" horiz-adv-x="1925" d="M2 52l570 589l-570 569l1 225h1727l-1 -605h-19l-152 133h-512l304 -322v-19l-304 -323h531l133 114h19v-606l-1726 -1zM814 1589l1 263h392v-555l-98 -3z" />
<glyph unicode="&#xc9;" horiz-adv-x="1925" d="M2 52l570 589l-570 569l1 225h1727l-1 -605h-19l-152 133h-512l304 -322v-19l-304 -323h531l133 114h19v-606l-1726 -1zM818 1292v555h392l1 -263l-295 -295z" />
<glyph unicode="&#xca;" horiz-adv-x="1925" d="M2 52l570 589l-570 569l1 225h1727l-1 -605h-19l-152 133h-512l304 -322v-19l-304 -323h531l133 114h19v-606l-1726 -1zM681 1295v292l267 269l104 -3l268 -266v-296l-98 1l-221 222l-216 -219h-104z" />
<glyph unicode="&#xcb;" horiz-adv-x="1925" d="M2 52l570 589l-570 569l1 225h1727l-1 -605h-19l-152 133h-512l304 -322v-19l-304 -323h531l133 114h19v-606l-1726 -1zM685 1514v264h264v-264h-264zM1056 1514v264h264v-264h-264z" />
<glyph unicode="&#xcc;" horiz-adv-x="844" d="M-2 1435h642v-1628h-640zM114 1589l1 263h392v-555l-98 -3z" />
<glyph unicode="&#xcd;" horiz-adv-x="844" d="M-2 1435h642v-1628h-640zM128 1292v555h392l1 -263l-295 -295z" />
<glyph unicode="&#xce;" horiz-adv-x="844" d="M-2 1435h642v-1628h-640zM1 1295v292l267 269l104 -3l268 -266v-296l-98 1l-221 222l-216 -219h-104z" />
<glyph unicode="&#xcf;" horiz-adv-x="844" d="M-5 1514v264h264v-264h-264zM-2 1435h642v-1628h-640zM366 1514v264h264v-264h-264z" />
<glyph unicode="&#xd2;" horiz-adv-x="2201" d="M2 1436h1691l304 -304v-1328l-1689 -1l-304 304zM650 282h721v682h-721v-682zM814 1589l1 263h392v-555l-98 -3z" />
<glyph unicode="&#xd3;" horiz-adv-x="2201" d="M2 1436h1691l304 -304v-1328l-1689 -1l-304 304zM650 282h721v682h-721v-682zM818 1292v555h392l1 -263l-295 -295z" />
<glyph unicode="&#xd4;" horiz-adv-x="2201" d="M2 1436h1691l304 -304v-1328l-1689 -1l-304 304zM650 282h721v682h-721v-682zM681 1295v292l267 269l104 -3l268 -266v-296l-98 1l-221 222l-216 -219h-104z" />
<glyph unicode="&#xd5;" horiz-adv-x="2201" d="M2 1436h1691l304 -304v-1328l-1689 -1l-304 304zM650 282h721v682h-721v-682zM684 1513l1 265l636 2v-268z" />
<glyph unicode="&#xd6;" horiz-adv-x="2201" d="M2 1436h1691l304 -304v-1328l-1689 -1l-304 304zM650 282h721v682h-721v-682zM685 1514v264h264v-264h-264zM1056 1514v264h264v-264h-264z" />
<glyph unicode="&#xd7;" horiz-adv-x="1111" d="M2 306v72l277 278l-277 275v61h410v-11l-44 -43l95 -96l95 95l-41 43l-2 10l409 -2l-1 -58l-277 -275l277 -278l1 -71h-398v9l44 43l-108 108l-106 -106l44 -45v-9h-398z" />
<glyph unicode="&#xd9;" horiz-adv-x="1928" d="M-3 -190l1 1625l773 -2v-19l-131 -150l-1 -980h443l-2 980l-131 150v19l778 2l-2 -1624zM664 1589l1 263h392v-555l-98 -3z" />
<glyph unicode="&#xda;" horiz-adv-x="1928" d="M-3 -190l1 1625l773 -2v-19l-131 -150l-1 -980h443l-2 980l-131 150v19l778 2l-2 -1624zM668 1292v555h392l1 -263l-295 -295z" />
<glyph unicode="&#xdb;" horiz-adv-x="1928" d="M-3 -190l1 1625l773 -2v-19l-131 -150l-1 -980h443l-2 980l-131 150v19l778 2l-2 -1624zM541 1295v292l267 269l104 -3l268 -266v-296l-98 1l-221 222l-216 -219h-104z" />
<glyph unicode="&#xdc;" horiz-adv-x="1928" d="M-3 -190l1 1625l773 -2v-19l-131 -150l-1 -980h443l-2 980l-131 150v19l778 2l-2 -1624zM545 1504v264h264v-264h-264zM916 1504v264h264v-264h-264z" />
<glyph unicode="&#xe0;" d="M0 0l1 1435l1630 -1l392 -393l-1 -1040l-776 -2v19l133 152l-1 408h-735v-410l131 -150v-19zM643 843l735 1v205l-735 2v-208zM814 1589l1 263h392v-555l-98 -3z" />
<glyph unicode="&#xe1;" d="M0 0l1 1435l1630 -1l392 -393l-1 -1040l-776 -2v19l133 152l-1 408h-735v-410l131 -150v-19zM643 843l735 1v205l-735 2v-208zM818 1292v555h392l1 -263l-295 -295z" />
<glyph unicode="&#xe2;" d="M0 0l1 1435l1630 -1l392 -393l-1 -1040l-776 -2v19l133 152l-1 408h-735v-410l131 -150v-19zM643 843l735 1v205l-735 2v-208zM681 1295v292l267 269l104 -3l268 -266v-296l-98 1l-221 222l-216 -219h-104z" />
<glyph unicode="&#xe3;" d="M0 0l1 1435l1630 -1l392 -393l-1 -1040l-776 -2v19l133 152l-1 408h-735v-410l131 -150v-19zM643 843l735 1v205l-735 2v-208zM684 1513l1 265l636 2v-268z" />
<glyph unicode="&#xe4;" d="M0 0l1 1435l1630 -1l392 -393l-1 -1040l-776 -2v19l133 152l-1 408h-735v-410l131 -150v-19zM643 843l735 1v205l-735 2v-208zM685 1514v264h264v-264h-264zM1056 1514v264h264v-264h-264z" />
<glyph unicode="&#xe6;" horiz-adv-x="2739" d="M0 0l1 1435l2539 -1l-1 -519h-19l-152 133h-512l304 -322v-19l-304 -323h531l133 114h19v-493l-784 -1v-3l-509 -2v19l133 152l-1 408h-735v-410l131 -150v-19zM643 843l735 1v205l-735 2v-208z" />
<glyph unicode="&#xe8;" horiz-adv-x="1910" d="M-1 135l570 589l-570 569l1 133h1724l2 -513h-19l-152 133h-512l304 -322v-19l-304 -323h531l133 114h19v-493l-1726 -1zM814 1589l1 263h392v-555l-98 -3z" />
<glyph unicode="&#xe9;" horiz-adv-x="1910" d="M-1 135l570 589l-570 569l1 133h1724l2 -513h-19l-152 133h-512l304 -322v-19l-304 -323h531l133 114h19v-493l-1726 -1zM818 1292v555h392l1 -263l-295 -295z" />
<glyph unicode="&#xea;" horiz-adv-x="1910" d="M-1 135l570 589l-570 569l1 133h1724l2 -513h-19l-152 133h-512l304 -322v-19l-304 -323h531l133 114h19v-493l-1726 -1zM681 1295v292l267 269l104 -3l268 -266v-296l-98 1l-221 222l-216 -219h-104z" />
<glyph unicode="&#xeb;" horiz-adv-x="1910" d="M-1 135l570 589l-570 569l1 133h1724l2 -513h-19l-152 133h-512l304 -322v-19l-304 -323h531l133 114h19v-493l-1726 -1zM685 1514v264h264v-264h-264zM1056 1514v264h264v-264h-264z" />
<glyph unicode="&#xec;" horiz-adv-x="829" d="M-2 1435h642v-1431h-640zM114 1589l1 263h392v-555l-98 -3z" />
<glyph unicode="&#xed;" horiz-adv-x="829" d="M-2 1435h642v-1431h-640zM128 1292v555h392l1 -263l-295 -295z" />
<glyph unicode="&#xee;" horiz-adv-x="829" d="M-2 1435h642v-1431h-640zM1 1295v292l267 269l104 -3l268 -266v-296l-98 1l-221 222l-216 -219h-104z" />
<glyph unicode="&#xef;" horiz-adv-x="829" d="M-5 1514v264h264v-264h-264zM-2 1435h642v-1431h-640zM366 1514v264h264v-264h-264z" />
<glyph unicode="&#xf2;" horiz-adv-x="2180" d="M-4 1427h1691l304 -304v-1119l-1689 -1l-304 304zM644 383h721v664h-721v-664zM814 1589l1 263h392v-555l-98 -3z" />
<glyph unicode="&#xf3;" horiz-adv-x="2180" d="M-4 1427h1691l304 -304v-1119l-1689 -1l-304 304zM644 383h721v664h-721v-664zM818 1292v555h392l1 -263l-295 -295z" />
<glyph unicode="&#xf4;" horiz-adv-x="2180" d="M-4 1427h1691l304 -304v-1119l-1689 -1l-304 304zM644 383h721v664h-721v-664zM681 1295v292l267 269l104 -3l268 -266v-296l-98 1l-221 222l-216 -219h-104z" />
<glyph unicode="&#xf5;" horiz-adv-x="2180" d="M-4 1427h1691l304 -304v-1119l-1689 -1l-304 304zM644 383h721v664h-721v-664zM684 1513l1 265l636 2v-268z" />
<glyph unicode="&#xf6;" horiz-adv-x="2180" d="M-4 1427h1691l304 -304v-1119l-1689 -1l-304 304zM644 383h721v664h-721v-664zM685 1514v264h264v-264h-264zM1056 1514v264h264v-264h-264z" />
<glyph unicode="&#xf7;" horiz-adv-x="1115" d="M-1 489l1 265l910 2v-268zM315 858v264h264v-264h-264zM317 116v264h264v-264h-264z" />
<glyph unicode="&#xf9;" horiz-adv-x="1928" d="M0 0l1 1435l773 -2v-19l-131 -150l-1 -882h443l-2 882l-131 150v19l778 2l-2 -1434zM664 1589l1 263h392v-555l-98 -3z" />
<glyph unicode="&#xfa;" horiz-adv-x="1928" d="M0 0l1 1435l773 -2v-19l-131 -150l-1 -882h443l-2 882l-131 150v19l778 2l-2 -1434zM668 1292v555h392l1 -263l-295 -295z" />
<glyph unicode="&#xfb;" horiz-adv-x="1928" d="M0 0l1 1435l773 -2v-19l-131 -150l-1 -882h443l-2 882l-131 150v19l778 2l-2 -1434zM541 1295v292l267 269l104 -3l268 -266v-296l-98 1l-221 222l-216 -219h-104z" />
<glyph unicode="&#xfc;" horiz-adv-x="1928" d="M0 0l1 1435l773 -2v-19l-131 -150l-1 -882h443l-2 882l-131 150v19l778 2l-2 -1434zM545 1504v264h264v-264h-264zM916 1504v264h264v-264h-264z" />
<glyph unicode="&#x2000;" horiz-adv-x="928" />
<glyph unicode="&#x2001;" horiz-adv-x="1856" />
<glyph unicode="&#x2002;" horiz-adv-x="928" />
<glyph unicode="&#x2003;" horiz-adv-x="1856" />
<glyph unicode="&#x2004;" horiz-adv-x="618" />
<glyph unicode="&#x2005;" horiz-adv-x="464" />
<glyph unicode="&#x2006;" horiz-adv-x="309" />
<glyph unicode="&#x2007;" horiz-adv-x="309" />
<glyph unicode="&#x2008;" horiz-adv-x="232" />
<glyph unicode="&#x2009;" horiz-adv-x="371" />
<glyph unicode="&#x200a;" horiz-adv-x="103" />
<glyph unicode="&#x2010;" horiz-adv-x="1115" d="M-1 489l1 265l910 2v-268z" />
<glyph unicode="&#x2011;" horiz-adv-x="1115" d="M-1 489l1 265l910 2v-268z" />
<glyph unicode="&#x2012;" horiz-adv-x="1115" d="M-1 489l1 265l910 2v-268z" />
<glyph unicode="&#x2013;" horiz-adv-x="1228" d="M-1 489l1 265l1023 2v-268z" />
<glyph unicode="&#x2014;" horiz-adv-x="2252" d="M-1 489l2 265l2046 2v-268z" />
<glyph unicode="&#x2018;" horiz-adv-x="593" d="M1 1206v583h392l1 -291l-295 -295z" />
<glyph unicode="&#x2019;" horiz-adv-x="593" d="M1 1498l1 291h392v-583l-98 -3z" />
<glyph unicode="&#x201a;" horiz-adv-x="593" d="M1 101l1 291h392v-583l-98 -3z" />
<glyph unicode="&#x201c;" horiz-adv-x="1090" d="M1 1206v583h392l1 -291l-295 -295zM501 1209v583h392l1 -291l-295 -295z" />
<glyph unicode="&#x201d;" horiz-adv-x="1090" d="M1 1501l1 291h392v-583l-98 -3zM501 1498l1 291h392v-583l-98 -3z" />
<glyph unicode="&#x201e;" horiz-adv-x="1087" d="M1 101l1 291h392v-583l-98 -3zM502 101l1 291h392v-583l-98 -3z" />
<glyph unicode="&#x202f;" horiz-adv-x="371" />
<glyph unicode="&#x205f;" horiz-adv-x="464" />
<glyph unicode="&#x20ac;" horiz-adv-x="1701" d="M2 175l456 466l-444 452l342 342h1260l-1 -605h-19l-152 133h-512l180 -191l330 -2v-268h-319l-191 -203h531l133 114h19v-606l-1244 -1z" />
<glyph unicode="&#x2122;" horiz-adv-x="1928" d="M-544 1433v2h1zM-543 1435h1v1zM-1 1584l1 252h715v-251h-8l-63 55h-154v-479h-265l-1 480h-152l-65 -57h-8zM799 1162v673h204l260 -174l283 174h180l1 -577v-96h-315v8l55 63v319l-212 -134l-197 134v-319l55 -63v-8h-314z" />
<glyph unicode="&#x25fc;" horiz-adv-x="1435" d="M0 0v1435h1435v-1435h-1435z" />
</font>
</defs>
</svg>
